<mxfile host="app.diagrams.net" modified="2023-02-28T01:27:47.055Z" agent="5.0 (Windows NT 10.0; Win64; x64) AppleWebKit/537.36 (KHTML, like Gecko) Chrome/110.0.0.0 Safari/537.36" etag="FKQKsz6SWElAjVxoNfoS" version="20.8.23" type="github">
  <diagram id="prtHgNgQTEPvFCAcTncT" name="Page-1">
    <mxGraphModel dx="2062" dy="580" grid="1" gridSize="5" guides="1" tooltips="1" connect="1" arrows="1" fold="1" page="1" pageScale="1" pageWidth="827" pageHeight="1169" math="0" shadow="0">
      <root>
        <mxCell id="0" />
        <mxCell id="1" parent="0" />
        <mxCell id="EEJVaBM-zFNCe87Yot7Z-3" value="" style="rounded=1;whiteSpace=wrap;html=1;dashed=1;movable=0;resizable=0;rotatable=0;deletable=0;editable=0;locked=1;connectable=0;" vertex="1" parent="1">
          <mxGeometry x="-540" y="310" width="340" height="175" as="geometry" />
        </mxCell>
        <mxCell id="EEJVaBM-zFNCe87Yot7Z-10" value="&lt;b&gt;外部网络&lt;/b&gt;" style="html=1;dashed=1;whitespace=wrap;shape=mxgraph.dfd.start" vertex="1" parent="1">
          <mxGeometry x="-540" y="265" width="120" height="30" as="geometry" />
        </mxCell>
        <mxCell id="EEJVaBM-zFNCe87Yot7Z-11" value="&lt;b&gt;复杂EtherCAT主站设计&lt;/b&gt;" style="rounded=0;whiteSpace=wrap;html=1;" vertex="1" parent="1">
          <mxGeometry x="-510" y="330" width="90" height="50" as="geometry" />
        </mxCell>
        <mxCell id="EEJVaBM-zFNCe87Yot7Z-12" value="&lt;b&gt;从站1&lt;/b&gt;" style="rounded=0;whiteSpace=wrap;html=1;" vertex="1" parent="1">
          <mxGeometry x="-500" y="440" width="60" height="35" as="geometry" />
        </mxCell>
        <mxCell id="EEJVaBM-zFNCe87Yot7Z-13" value="&lt;b&gt;从站2&lt;/b&gt;" style="rounded=0;whiteSpace=wrap;html=1;" vertex="1" parent="1">
          <mxGeometry x="-400" y="440" width="60" height="35" as="geometry" />
        </mxCell>
        <mxCell id="EEJVaBM-zFNCe87Yot7Z-14" value="&lt;b&gt;从站n&lt;/b&gt;" style="rounded=0;whiteSpace=wrap;html=1;" vertex="1" parent="1">
          <mxGeometry x="-280" y="440" width="60" height="35" as="geometry" />
        </mxCell>
        <mxCell id="EEJVaBM-zFNCe87Yot7Z-18" value="" style="endArrow=none;html=1;rounded=0;fillColor=#dae8fc;strokeColor=#497ac3;strokeWidth=2;jumpSize=6;" edge="1" parent="1">
          <mxGeometry width="50" height="50" relative="1" as="geometry">
            <mxPoint x="-480.5" y="440" as="sourcePoint" />
            <mxPoint x="-480.5" y="380" as="targetPoint" />
            <Array as="points">
              <mxPoint x="-480.5" y="410" />
            </Array>
          </mxGeometry>
        </mxCell>
        <mxCell id="EEJVaBM-zFNCe87Yot7Z-20" value="" style="endArrow=none;html=1;rounded=0;fillColor=#dae8fc;strokeColor=#497ac3;strokeWidth=2;jumpSize=6;" edge="1" parent="1">
          <mxGeometry width="50" height="50" relative="1" as="geometry">
            <mxPoint x="-390" y="420" as="sourcePoint" />
            <mxPoint x="-450" y="420" as="targetPoint" />
            <Array as="points">
              <mxPoint x="-431" y="420" />
            </Array>
          </mxGeometry>
        </mxCell>
        <mxCell id="EEJVaBM-zFNCe87Yot7Z-21" value="" style="endArrow=none;html=1;rounded=0;fillColor=#dae8fc;strokeColor=#497ac3;strokeWidth=2;jumpSize=6;endSize=6;" edge="1" parent="1">
          <mxGeometry width="50" height="50" relative="1" as="geometry">
            <mxPoint x="-450" y="440" as="sourcePoint" />
            <mxPoint x="-450" y="420" as="targetPoint" />
            <Array as="points" />
          </mxGeometry>
        </mxCell>
        <mxCell id="EEJVaBM-zFNCe87Yot7Z-22" value="" style="endArrow=none;html=1;rounded=0;fillColor=#dae8fc;strokeColor=#497ac3;strokeWidth=2;jumpSize=6;" edge="1" parent="1">
          <mxGeometry width="50" height="50" relative="1" as="geometry">
            <mxPoint x="-390" y="440" as="sourcePoint" />
            <mxPoint x="-389.5" y="420" as="targetPoint" />
            <Array as="points">
              <mxPoint x="-390" y="420" />
            </Array>
          </mxGeometry>
        </mxCell>
        <mxCell id="EEJVaBM-zFNCe87Yot7Z-23" value="" style="endArrow=none;html=1;rounded=0;fillColor=#dae8fc;strokeColor=#497ac3;strokeWidth=2;jumpSize=6;" edge="1" parent="1">
          <mxGeometry width="50" height="50" relative="1" as="geometry">
            <mxPoint x="-320" y="420" as="sourcePoint" />
            <mxPoint x="-350" y="420" as="targetPoint" />
            <Array as="points">
              <mxPoint x="-331" y="420" />
            </Array>
          </mxGeometry>
        </mxCell>
        <mxCell id="EEJVaBM-zFNCe87Yot7Z-24" value="" style="endArrow=none;html=1;rounded=0;fillColor=#dae8fc;strokeColor=#497ac3;strokeWidth=2;jumpSize=6;endSize=6;" edge="1" parent="1">
          <mxGeometry width="50" height="50" relative="1" as="geometry">
            <mxPoint x="-350" y="440" as="sourcePoint" />
            <mxPoint x="-350" y="420" as="targetPoint" />
            <Array as="points" />
          </mxGeometry>
        </mxCell>
        <mxCell id="EEJVaBM-zFNCe87Yot7Z-25" value="" style="endArrow=none;html=1;rounded=0;fillColor=#dae8fc;strokeColor=#497ac3;strokeWidth=2;jumpSize=6;" edge="1" parent="1">
          <mxGeometry width="50" height="50" relative="1" as="geometry">
            <mxPoint x="-265" y="440" as="sourcePoint" />
            <mxPoint x="-264.5" y="420" as="targetPoint" />
            <Array as="points">
              <mxPoint x="-265" y="420" />
            </Array>
          </mxGeometry>
        </mxCell>
        <mxCell id="EEJVaBM-zFNCe87Yot7Z-28" value="" style="endArrow=none;html=1;rounded=0;fillColor=#dae8fc;strokeColor=#497ac3;strokeWidth=2;jumpSize=6;" edge="1" parent="1">
          <mxGeometry width="50" height="50" relative="1" as="geometry">
            <mxPoint x="-265" y="420" as="sourcePoint" />
            <mxPoint x="-300" y="420" as="targetPoint" />
            <Array as="points">
              <mxPoint x="-281" y="420" />
            </Array>
          </mxGeometry>
        </mxCell>
        <mxCell id="EEJVaBM-zFNCe87Yot7Z-29" value="" style="endArrow=none;html=1;rounded=0;fillColor=#dae8fc;strokeColor=#497ac3;strokeWidth=2;jumpSize=6;dashed=1;" edge="1" parent="1">
          <mxGeometry width="50" height="50" relative="1" as="geometry">
            <mxPoint x="-235" y="397.3" as="sourcePoint" />
            <mxPoint x="-440" y="395" as="targetPoint" />
            <Array as="points">
              <mxPoint x="-440" y="398" />
            </Array>
          </mxGeometry>
        </mxCell>
        <mxCell id="EEJVaBM-zFNCe87Yot7Z-30" value="" style="endArrow=none;html=1;rounded=0;fillColor=#dae8fc;strokeColor=#497ac3;strokeWidth=2;jumpSize=6;endSize=6;" edge="1" parent="1">
          <mxGeometry width="50" height="50" relative="1" as="geometry">
            <mxPoint x="-440" y="390" as="sourcePoint" />
            <mxPoint x="-440" y="380" as="targetPoint" />
            <Array as="points" />
          </mxGeometry>
        </mxCell>
        <mxCell id="EEJVaBM-zFNCe87Yot7Z-32" value="" style="endArrow=none;html=1;rounded=0;fillColor=#dae8fc;strokeColor=#497ac3;strokeWidth=2;jumpSize=6;endSize=6;dashed=1;exitX=0.836;exitY=0.017;exitDx=0;exitDy=0;exitPerimeter=0;" edge="1" parent="1" source="EEJVaBM-zFNCe87Yot7Z-14">
          <mxGeometry width="50" height="50" relative="1" as="geometry">
            <mxPoint x="-230" y="435" as="sourcePoint" />
            <mxPoint x="-230" y="395" as="targetPoint" />
            <Array as="points" />
          </mxGeometry>
        </mxCell>
        <mxCell id="EEJVaBM-zFNCe87Yot7Z-34" value="&lt;font size=&quot;1&quot; style=&quot;&quot;&gt;&lt;b style=&quot;font-size: 16px;&quot;&gt;... ...&lt;/b&gt;&lt;/font&gt;" style="text;html=1;strokeColor=none;fillColor=none;align=center;verticalAlign=middle;whiteSpace=wrap;rounded=0;strokeWidth=2;fontFamily=Georgia;" vertex="1" parent="1">
          <mxGeometry x="-335" y="440" width="50" height="30" as="geometry" />
        </mxCell>
        <mxCell id="EEJVaBM-zFNCe87Yot7Z-35" value="" style="endArrow=classic;startArrow=classic;html=1;rounded=0;dashed=1;strokeColor=#497ac3;strokeWidth=2;fontFamily=Georgia;fontSize=16;endSize=6;jumpSize=6;entryX=1;entryY=0.5;entryDx=0;entryDy=0;entryPerimeter=0;exitX=1;exitY=0.5;exitDx=0;exitDy=0;" edge="1" parent="1" source="EEJVaBM-zFNCe87Yot7Z-11" target="EEJVaBM-zFNCe87Yot7Z-10">
          <mxGeometry width="50" height="50" relative="1" as="geometry">
            <mxPoint x="-417" y="355" as="sourcePoint" />
            <mxPoint x="-415" y="280" as="targetPoint" />
            <Array as="points">
              <mxPoint x="-400" y="355" />
              <mxPoint x="-400" y="280" />
            </Array>
          </mxGeometry>
        </mxCell>
        <mxCell id="EEJVaBM-zFNCe87Yot7Z-36" value="&lt;font style=&quot;font-size: 12px;&quot; face=&quot;Helvetica&quot;&gt;EtherCAT网络&lt;/font&gt;" style="text;html=1;strokeColor=none;fillColor=none;align=center;verticalAlign=middle;whiteSpace=wrap;rounded=0;fontSize=16;fontFamily=Georgia;fontStyle=1" vertex="1" parent="1">
          <mxGeometry x="-360" y="370" width="130" height="30" as="geometry" />
        </mxCell>
      </root>
    </mxGraphModel>
  </diagram>
</mxfile>
